<svg xmlns="http://www.w3.org/2000/svg" width="32" height="32" fill="none"><path fill="#F0B90B" d="m18.284 9.325-.56-.575L16.7 9.78a11.909 11.909 0 0 1 1.584-.455Zm-8.79 7.703c-.133.374-.249.757-.345 1.148l-.4-.4.745-.748Zm3.702-12.751L10.973 2 5.375 7.652l2.223 2.223 5.598-5.598Zm3.375 3.375-2.223-2.277-8.973 9.027 2.223 2.223 8.973-8.973ZM4.223 8.75l2.223 2.277-2.223 2.223L2 11.027 4.223 8.75Z"/><g clip-path="url(#a)"><path fill="url(#b)" d="M30 21a9 9 0 1 0-18 0 9 9 0 0 0 18 0Z"/><path fill="#fff" fill-rule="evenodd" d="M21 17.85A3.15 3.15 0 0 0 17.85 21H16.5a4.501 4.501 0 0 1 4.5-4.5v1.35Zm2.91-.145c.159-.382.24-.791.24-1.205h1.35A4.501 4.501 0 0 1 21 21v-1.35a3.15 3.15 0 0 0 2.91-1.944ZM21 21a4.501 4.501 0 0 0-4.5 4.5h1.35A3.15 3.15 0 0 1 21 22.35V21Zm2.91 1.206c.159-.383.24-.792.24-1.206h1.35a4.501 4.501 0 0 1-4.5 4.5v-1.35a3.149 3.149 0 0 0 2.91-1.944Z" clip-rule="evenodd"/></g><defs><linearGradient id="b" x1="14.675" x2="27.4" y1="14.475" y2="27.2" gradientUnits="userSpaceOnUse"><stop stop-color="#4EBEA0"/><stop offset=".965" stop-color="#1D5F94"/></linearGradient><clipPath id="a"><path fill="#fff" d="M12 12h18v18H12z"/></clipPath></defs></svg>