<svg xmlns="http://www.w3.org/2000/svg" width="32" height="32" fill="none"><path fill="#F7931A" d="M20 11.18c-4.47.82-8 4.35-8.82 8.82A9.01 9.01 0 0 1 2.27 8.82 9 9 0 0 1 20 11.18Z"/><path fill="#fff" fill-rule="evenodd" d="M12.99 7.45c1.24.43 2.15 1.07 1.98 2.27-.13.87-.62 1.3-1.27 1.45.9.46 1.34 1.17.91 2.4-.06.18-.14.35-.23.5-.21.2-.42.42-.62.64-.65.41-1.56.39-2.63.19l-.41 1.63-.99-.24.4-1.62a39.1 39.1 0 0 1-.78-.2l-.4 1.62-1-.25.42-1.64-.26-.06-.45-.12-1.28-.32.49-1.13s.72.2.72.18c.27.07.4-.11.45-.23l.64-2.6.09.03h.02a.8.8 0 0 0-.1-.03l.46-1.85c0-.2-.06-.47-.46-.57.01-.01-.72-.18-.72-.18l.26-1.06 1.36.34v.01l.63.15.4-1.62 1 .24-.4 1.6c.26.05.53.11.79.18l.4-1.58.98.25-.4 1.62Zm-3.13 5.88c.8.21 2.57.68 2.85-.45.29-1.15-1.42-1.53-2.26-1.72l-.24-.05-.54 2.17.2.05Zm3.15-3.63c-.25 1.02-1.72.63-2.39.45l-.16-.04.5-1.97.2.05c.7.15 2.12.46 1.85 1.51Z" clip-rule="evenodd"/><g clip-path="url(#a)"><path fill="url(#b)" d="M31 22a9 9 0 1 0-18 0 9 9 0 0 0 18 0Z"/><path fill="#fff" fill-rule="evenodd" d="M22 18.85A3.15 3.15 0 0 0 18.85 22H17.5a4.5 4.5 0 0 1 4.5-4.5v1.35Zm2.91-.14c.16-.39.24-.8.24-1.21h1.35A4.5 4.5 0 0 1 22 22v-1.35a3.15 3.15 0 0 0 2.91-1.94ZM22 22a4.5 4.5 0 0 0-4.5 4.5h1.35A3.15 3.15 0 0 1 22 23.35V22Zm2.91 1.2c.16-.38.24-.79.24-1.2h1.35a4.5 4.5 0 0 1-4.5 4.5v-1.35a3.15 3.15 0 0 0 2.91-1.94Z" clip-rule="evenodd"/></g><defs><linearGradient id="b" x1="15.68" x2="28.4" y1="15.47" y2="28.2" gradientUnits="userSpaceOnUse"><stop stop-color="#4EBEA0"/><stop offset=".96" stop-color="#1D5F94"/></linearGradient><clipPath id="a"><path fill="#fff" d="M13 13h18v18H13z"/></clipPath></defs></svg>