<svg width="56" height="56" viewBox="0 0 56 56" fill="none" xmlns="http://www.w3.org/2000/svg"><rect width="56" height="56" fill="white"/><mask id="mask0_380_27868" style="mask-type:alpha" maskUnits="userSpaceOnUse" x="8" y="8" width="40" height="40"><path d="M48 8H8V48H48V8Z" fill="#2E3035"/></mask><g mask="url(#mask0_380_27868)"><path fill-rule="evenodd" clip-rule="evenodd" d="M48.0001 28L28.0001 8L8.00006 28L28.0001 48L48.0001 28ZM22.933 22.858V37.3333H20.6667V28.4H16.0001V26.6667H20.6667V18.6667H22.8947L32.8635 33.1939H33.0671V18.6667H35.3334V26.6667H40.0001V28.4H35.3334V37.3333H33.1054L23.1366 22.858H22.933Z" fill="#5428DB"/><mask id="mask1_380_27868" style="mask-type:alpha" maskUnits="userSpaceOnUse" x="7" y="8" width="42" height="23"><path fill-rule="evenodd" clip-rule="evenodd" d="M18.0937 24.8832C15.3331 24.8435 12.0461 25.6252 7.82098 28.1507C7.46381 27.7051 8.91535 26.4569 8.66703 26.0003C8.66844 25.3357 11.333 23.6941 11.3337 23.3336C18.0004 18.667 25.3337 8.66667 28.0003 8C31.9873 11.4384 39.0286 18.8768 46.667 24.0007C46.6779 24.2589 46.6627 24.2772 46.667 24.668C46.6657 25.3348 47.3355 25.8061 47.3337 26.6673C46.3362 25.5712 48.9029 27.5509 48.8967 27.6612C44.4097 29.9856 40.6342 30.7225 37.2299 30.512C33.4345 30.2771 30.2626 28.8609 27.393 27.5797C27.2835 27.5309 27.1746 27.4823 27.0661 27.4339C24.0394 26.0847 21.3141 24.9295 18.0937 24.8832Z" fill="#2E3035"/></mask><g mask="url(#mask1_380_27868)"><path fill-rule="evenodd" clip-rule="evenodd" d="M48.0001 28L28.0001 8L8.00006 28L28.0001 48L48.0001 28ZM22.9333 22.858V37.3333H20.667V28.4H16.0004V26.6667H20.667V18.6667H22.8951L32.8638 33.1939H33.0675V18.6667H35.3337V26.6667H40.0003V28.4H35.3337V37.3333H33.1057L23.137 22.858H22.9333Z" fill="#6A53F3"/></g></g></svg>