<svg xmlns="http://www.w3.org/2000/svg" width="32" height="32" fill="none"><path fill="#4EAF94" d="M20.8 10.102c-5.725.472-10.31 4.963-10.929 10.645a9 9 0 1 1 10.928-10.645Z"/><path fill="#fff" d="M12.941 13.966a12.029 12.029 0 0 0-1.778 2.534h-.182V12.99c-2.099-.126-3.669-.632-3.669-1.238 0-.605 1.57-1.112 3.669-1.238v-.982H8.312V7.5h7.298v2.033h-2.669v.978c1.621.089 2.938.405 3.48.82-.093.046-.185.094-.276.143-.133-.364-1.457-.662-3.202-.742v1.19a18.255 18.255 0 0 1-1.96-.005v-1.181c-1.802.09-3.135.413-3.135.798 0 .455 1.86.823 4.154.823 1.257 0 2.384-.11 3.146-.285-.38.253-.745.528-1.092.822-.35.046-.723.08-1.115.102v.97Z"/><g clip-path="url(#a)"><path fill="url(#b)" d="M31 22a9 9 0 1 0-18 0 9 9 0 0 0 18 0Z"/><path fill="#fff" fill-rule="evenodd" d="M22 18.85A3.15 3.15 0 0 0 18.85 22H17.5a4.501 4.501 0 0 1 4.5-4.5v1.35Zm2.91-.145c.159-.382.24-.791.24-1.205h1.35A4.501 4.501 0 0 1 22 22v-1.35a3.15 3.15 0 0 0 2.91-1.944ZM22 22a4.501 4.501 0 0 0-4.5 4.5h1.35A3.15 3.15 0 0 1 22 23.35V22Zm2.91 1.206c.159-.383.24-.792.24-1.206h1.35a4.501 4.501 0 0 1-4.5 4.5v-1.35a3.149 3.149 0 0 0 2.91-1.944Z" clip-rule="evenodd"/></g><defs><linearGradient id="b" x1="15.675" x2="28.4" y1="15.475" y2="28.2" gradientUnits="userSpaceOnUse"><stop stop-color="#4EBEA0"/><stop offset=".965" stop-color="#1D5F94"/></linearGradient><clipPath id="a"><path fill="#fff" d="M13 13h18v18H13z"/></clipPath></defs></svg>