<svg xmlns="http://www.w3.org/2000/svg" width="32" height="32" fill="none"><g clip-path="url(#a)"><mask id="b" width="28" height="28" x="0" y="0" maskUnits="userSpaceOnUse" style="mask-type:alpha"><path fill="#C4C4C4" d="M28 11.116a12.657 12.657 0 0 0-5.895-1.447c-7.043 0-12.753 5.733-12.753 12.805 0 1.979.447 3.853 1.246 5.526C4.5 26.41 0 20.847 0 14.228 0 6.37 6.344 0 14.17 0 20.931 0 26.586 4.755 28 11.116Z"/></mask><g fill="#F0B90B" mask="url(#b)"><path d="m10.976 3 1.976 2.024L7.976 10 6 8.024 10.976 3ZM13.976 6l1.976 2.024L7.976 16 6 14.024 13.976 6ZM4.976 9l1.976 2.024L4.976 13 3 11.024 4.976 9ZM16.976 9l1.976 2.024L10.976 19 9 17.024 16.976 9Z"/></g></g><path fill="#4EAF94" d="M21 13a8 8 0 1 0 0 16 8 8 0 0 0 0-16Z"/><path fill="#fff" fill-rule="evenodd" d="M21.837 25v-3.114c1.9-.105 3.33-.56 3.33-1.105 0-.545-1.43-1-3.33-1.105v-.868h2.373V17h-6.488v1.808h2.373v.872c-1.866.112-3.261.562-3.261 1.1 0 .54 1.395.99 3.26 1.101V25h1.743Zm0-4.07v-1.056c1.637.075 2.856.365 2.856.712 0 .404-1.653.732-3.692.732-2.04 0-3.693-.328-3.693-.732 0-.342 1.185-.63 2.787-.71v1.051a15.723 15.723 0 0 0 1.742.004Z" clip-rule="evenodd"/><defs><clipPath id="a"><path fill="#fff" d="M3 3h16v16H3z"/></clipPath></defs></svg>