<svg xmlns="http://www.w3.org/2000/svg" width="32" height="32" fill="none"><path fill="#5428DB" d="M12.765 12.263c.456.189.931.367 1.431.514-.23.19-.455.387-.671.593l-.76-1.107ZM8.7 7.8v2.92a6.476 6.476 0 0 0-1.158-.123c-1.222-.018-2.673.323-4.53 1.416l7.142 7.141a11.97 11.97 0 0 1 2.684-5.073L9.81 9.686l1.265 1.837a16.304 16.304 0 0 0-1.356-.53V16.2H8.7v-4.02H6.6v-.78h2.1V7.8ZM3.004 12.004c.005-.006.006-.01-.004-.004l.004.004ZM19.318 10.318ZM14.28 12.709Z"/><path fill="#6A53F3" d="M14.28 12.709a17.83 17.83 0 0 0-.084.068 14.07 14.07 0 0 1-1.431-.514L9.702 7.8H8.7v2.92a6.476 6.476 0 0 0-1.158-.123c-1.225-.018-2.68.325-4.542 1.423-.013.008-.007-.001 0-.01.007-.01.013-.018 0-.01l8.386-8.386L12 3l7.317 7.318c-1.07.225-2.087.593-3.032 1.082H15.3V7.8h-1.02v4.909Z"/><path fill="#6A53F3" d="m9.811 9.686 1.265 1.837a16.308 16.308 0 0 0-1.356-.53V9.685h.091Z"/><g clip-path="url(#a)"><path fill="url(#b)" d="M31 22a9 9 0 1 0-18 0 9 9 0 0 0 18 0Z"/><path fill="#fff" fill-rule="evenodd" d="M22 18.85A3.15 3.15 0 0 0 18.85 22H17.5a4.501 4.501 0 0 1 4.5-4.5v1.35Zm2.91-.145c.159-.382.24-.791.24-1.205h1.35A4.501 4.501 0 0 1 22 22v-1.35a3.15 3.15 0 0 0 2.91-1.944ZM22 22a4.501 4.501 0 0 0-4.5 4.5h1.35A3.15 3.15 0 0 1 22 23.35V22Zm2.91 1.206c.159-.383.24-.792.24-1.206h1.35a4.501 4.501 0 0 1-4.5 4.5v-1.35a3.149 3.149 0 0 0 2.91-1.944Z" clip-rule="evenodd"/></g><defs><linearGradient id="b" x1="15.675" x2="28.4" y1="15.475" y2="28.2" gradientUnits="userSpaceOnUse"><stop stop-color="#4EBEA0"/><stop offset=".965" stop-color="#1D5F94"/></linearGradient><clipPath id="a"><path fill="#fff" d="M13 13h18v18H13z"/></clipPath></defs></svg>