<svg xmlns="http://www.w3.org/2000/svg" width="32" height="32" fill="none"><g clip-path="url(#a)"><mask id="b" width="28" height="28" x="0" y="0" maskUnits="userSpaceOnUse" style="mask-type:alpha"><path fill="#C4C4C4" d="M28 11.116a12.657 12.657 0 0 0-5.895-1.447c-7.043 0-12.753 5.733-12.753 12.805 0 1.979.447 3.853 1.246 5.526C4.5 26.41 0 20.847 0 14.228 0 6.37 6.344 0 14.17 0 20.931 0 26.586 4.755 28 11.116Z"/></mask><g fill="#F0B90B" mask="url(#b)"><path d="m10.976 3 1.976 2.024L7.976 10 6 8.024 10.976 3ZM13.976 6l1.976 2.024L7.976 16 6 14.024 13.976 6ZM4.976 9l1.976 2.024L4.976 13 3 11.024 4.976 9ZM16.976 9l1.976 2.024L10.976 19 9 17.024 16.976 9Z"/></g></g><path fill="#2775CA" d="M21 29c4.433 0 8-3.567 8-8s-3.567-8-8-8a7.98 7.98 0 0 0-8 8c0 4.433 3.567 8 8 8Z"/><path fill="#fff" fill-rule="evenodd" d="M16.334 19.367c-.967 2.567.367 5.467 2.967 6.4.1.067.2.2.2.3v.467c0 .067 0 .1-.034.133-.033.134-.166.2-.3.134a5.996 5.996 0 0 1-3.9-3.9c-1-3.167.734-6.534 3.9-7.534.034-.033.1-.033.134-.033.133.033.2.133.2.267v.466c0 .167-.067.267-.2.334a4.931 4.931 0 0 0-2.967 2.966Zm6.2-3.866c.033-.134.167-.2.3-.134 1.833.6 3.3 2.034 3.9 3.934 1 3.166-.733 6.533-3.9 7.533-.033.033-.1.033-.133.033-.134-.033-.2-.133-.2-.266v-.467c0-.167.066-.267.2-.333a4.93 4.93 0 0 0 2.966-2.967c.967-2.567-.366-5.467-2.966-6.4-.1-.067-.2-.2-.2-.333v-.467c0-.067 0-.1.033-.133Zm-1.433 5.033c1.4.166 2.1.566 2.1 1.733 0 .9-.667 1.6-1.667 1.767v.8c-.033.166-.133.266-.266.266h-.5c-.167-.033-.267-.133-.267-.266v-.8c-1.1-.167-1.633-.767-1.767-1.6V22.4c0-.133.1-.233.234-.233h.566c.1 0 .2.067.234.2.1.5.4.867 1.266.867.634 0 1.1-.367 1.1-.9 0-.534-.3-.734-1.233-.9-1.4-.167-2.067-.6-2.067-1.7 0-.834.634-1.5 1.634-1.634v-.766c.033-.167.133-.267.266-.267h.5c.167.033.267.133.267.267v.8a1.665 1.665 0 0 1 1.5 1.366v.034c0 .133-.1.233-.233.233h-.534a.25.25 0 0 1-.233-.167c-.167-.5-.5-.7-1.1-.7-.667 0-1 .3-1 .767s.2.733 1.2.867Z" clip-rule="evenodd"/><defs><clipPath id="a"><path fill="#fff" d="M3 3h16v16H3z"/></clipPath></defs></svg>