<svg xmlns="http://www.w3.org/2000/svg" width="120" height="120"><g clip-path="url(#a)"><g transform="matrix(2 0 0 2 18 18)"><path fill="#05F" fill-rule="evenodd" d="m29.973 15.027-14.81 14.81L.351 15.027 15.162.217z"/></g></g><defs transform="scale(.5)"><clipPath id="a"><path d="M0 0v120h120V0H0zm83.6 81.4C71.3 93.7 53.8 96 44.4 86.7c-9.4-9.4-7-26.9 5.3-39.2s29.9-14.7 39.2-5.3c9.4 9.3 7 26.9-5.3 39.2z"/></clipPath></defs><path fill="#2775ca" d="M78 108c16.625 0 30-13.375 30-30S94.625 48 78 48 48 61.375 48 78s13.375 30 30 30z"/><path fill="#fff" d="M86.25 82.75c0-4.375-2.625-5.875-7.875-6.5-3.75-.5-4.5-1.5-4.5-3.25s1.25-2.875 3.75-2.875c2.25 0 3.5.75 4.125 2.625a.94.94 0 0 0 .875.625h2c.5 0 .875-.375.875-.875v-.125a6.245 6.245 0 0 0-5.625-5.125v-3c0-.5-.375-.875-1-1H77c-.5 0-.875.375-1 1v2.875c-3.75.5-6.125 3-6.125 6.125 0 4.125 2.5 5.75 7.75 6.375C81.125 80.25 82.25 81 82.25 83s-1.75 3.375-4.125 3.375c-3.25 0-4.375-1.375-4.75-3.25-.125-.5-.5-.75-.875-.75h-2.125c-.5 0-.875.375-.875.875v.125c.5 3.125 2.5 5.375 6.625 6v3c0 .5.375.875 1 1H79c.5 0 .875-.375 1-1v-3c3.75-.625 6.25-3.25 6.25-6.625z"/><path fill="#fff" d="M71.625 95.875c-9.75-3.5-14.75-14.375-11.125-24 1.875-5.25 6-9.25 11.125-11.125.5-.25.75-.625.75-1.25v-1.75c0-.5-.25-.875-.75-1-.125 0-.375 0-.5.125C59.25 60.625 52.75 73.25 56.5 85.125c2.25 7 7.625 12.375 14.625 14.625.5.25 1 0 1.125-.5.125-.125.125-.25.125-.5V97c0-.375-.375-.875-.75-1.125zm13.25-39c-.5-.25-1 0-1.125.5-.125.125-.125.25-.125.5v1.75c0 .5.375 1 .75 1.25 9.75 3.5 14.75 14.375 11.125 24-1.875 5.25-6 9.25-11.125 11.125-.5.25-.75.625-.75 1.25V99c0 .5.25.875.75 1 .125 0 .375 0 .5-.125C96.75 96.125 103.25 83.5 99.5 71.625c-2.25-7.125-7.75-12.5-14.625-14.75z"/></svg>