<?xml version="1.0" encoding="UTF-8" standalone="no"?>
<!-- Creator: CorelDRAW 2019 (64-Bit) -->

<svg
   xml:space="preserve"
   width="220mm"
   height="220mm"
   version="1.1"
   style="shape-rendering:geometricPrecision; text-rendering:geometricPrecision; image-rendering:optimizeQuality; fill-rule:evenodd; clip-rule:evenodd"
   viewBox="0 0 22000 22000"
   id="svg2969"
   sodipodi:docname="wxBUSDUSDC_TCI.svg"
   inkscape:version="1.2.2 (b0a8486541, 2022-12-01)"
   xmlns:inkscape="http://www.inkscape.org/namespaces/inkscape"
   xmlns:sodipodi="http://sodipodi.sourceforge.net/DTD/sodipodi-0.dtd"
   xmlns="http://www.w3.org/2000/svg"
   xmlns:svg="http://www.w3.org/2000/svg"><sodipodi:namedview
   id="namedview2971"
   pagecolor="#ffffff"
   bordercolor="#000000"
   borderopacity="0.25"
   inkscape:showpageshadow="2"
   inkscape:pageopacity="0.0"
   inkscape:pagecheckerboard="0"
   inkscape:deskcolor="#d1d1d1"
   inkscape:document-units="mm"
   showgrid="false"
   inkscape:zoom="0.93686553"
   inkscape:cx="417.34912"
   inkscape:cy="418.4165"
   inkscape:window-width="1920"
   inkscape:window-height="1008"
   inkscape:window-x="26"
   inkscape:window-y="23"
   inkscape:window-maximized="0"
   inkscape:current-layer="Layer_x0020_1" />
 <defs
   id="defs2941">
  <style
   type="text/css"
   id="style2939">
   <![CDATA[
    .fil4 {fill:#01FBB3;fill-rule:nonzero}
    .fil3 {fill:#04B494;fill-rule:nonzero}
    .fil5 {fill:#19202E;fill-rule:nonzero}
    .fil2 {fill:#2775CA;fill-rule:nonzero}
    .fil1 {fill:#5980E9;fill-rule:nonzero}
    .fil0 {fill:#E04A50;fill-rule:nonzero}
   ]]>
  </style>
 <clipPath
   id="a"><path
     d="M0 0v120h120V0H0zm83.6 81.4C71.3 93.7 53.8 96 44.4 86.7c-9.4-9.4-7-26.9 5.3-39.2s29.9-14.7 39.2-5.3c9.4 9.3 7 26.9-5.3 39.2z"
     id="path5496" /></clipPath></defs>
 <g
   id="Layer_x0020_1"
   inkscape:label="Layer 1">
  <metadata
   id="CorelCorpID_0Corel-Layer" />
  <path
   class="fil0"
   d="M15291.87 13125.69c-1232.43,-710.47 -3715.06,-2142.85 -3715.06,-2142.85 0,0 4941.56,-2855.76 7404.57,-4278.54l4.88 3.06 5.54 3.48c-1217.29,2108.09 -3699.93,6414.85 -3699.93,6414.85z"
   id="path2944" />
  <path
   class="fil1"
   d="M2503.5 6080.11c395.2,-232.03 811.47,-470.84 1174.98,-679.99 -3.48,3161.21 -6.96,6322.63 -10.42,9484.03 -377.83,218.16 -1164.56,654.66 -1164.56,654.66l0 -9458.7z"
   id="path2946" />
  <path
   class="fil2"
   d="M4265.66 5058.89c968.69,-559.57 2936.93,-1679.97 2936.93,-1679.97 -0.41,3156.71 -0.82,6313.63 -1.23,9470.34 -957.85,552.23 -2946.12,1684.26 -2946.12,1684.26 3.68,-3295.33 6.74,-6095.68 10.42,-9474.63z"
   id="path2948"
   style="fill:#f0b90b;fill-opacity:1" />
  <path
   class="fil2"
   d="M7789.98 3023.99c968.68,-559.17 1937.37,-1118.34 2906.05,-1677.5 3.47,3153.64 6.95,6307.27 10.43,9460.72l-2926.7 1704.52c3.26,-3162.66 6.74,-6325.09 10.22,-9487.74z"
   id="path2950"
   style="fill:#f0b90b;fill-opacity:1" />
  <path
   class="fil3"
   d="M11283.43 1328.04c885.56,581.35 2002.15,1157.37 2936.91,1697.39 3.48,1921.41 7.16,3843.05 10.43,5764.67 -950.28,549.16 -2947.35,1700.62 -2947.35,1700.62l0.01 -9162.68z"
   id="path2952"
   style="fill:#2775ca;fill-opacity:1" />
  <path
   class="fil4"
   d="M14807.74 3374.42l4412.23 2537.23 -4411.21 2548.89c0,-1695.37 -1.02,-3390.75 -1.02,-5086.12z"
   id="path2954"
   style="fill:#2775ca;fill-opacity:1" />
  <path
   class="fil0"
   d="M10706.46 20608.97l-7893.83 -4556.38 1163.74 -668.35c0,0 4494.22,2608.39 6730.09,3912.57l0 1312.16z"
   id="path2956" />
  <path
   class="fil2"
   d="M10705.64 18635.62l-6160.29 -3594.85c0,0 1977.44,-1144.51 2947.96,-1704.91 0,0 2167.38,1270.87 3213.15,1881.76l-0.82 3418z"
   id="path2958"
   style="fill:#f0b90b;fill-opacity:1" />
  <path
   class="fil2"
   d="M10706.46 14557.44l-2638.03 -1541.34c0,0 1768.91,-1032.28 2638.03,-1533.78l0 3075.12z"
   id="path2960"
   style="fill:#f0b90b;fill-opacity:1" />
  <path
   class="fil5"
   d="M11283.42 11477.61c1300.5,735.4 3709.54,2149.58 3709.54,2149.58l-3709.54 6412.99 0 -8562.57z"
   id="path2962" />
  <path
   class="fil1"
   d="M11791.89 20326.21l3709.33 -6415.03c1232.02,710.87 3712.21,2142.85 3712.21,2142.85 0,0 -7406.42,4266.88 -7421.54,4272.18z"
   id="path2964" />
  <path
   class="fil5"
   d="M19496.6 15557c-1232.64,-710.25 -3698.71,-2149.59 -3698.71,-2149.59 0,0 2465.46,-4290.59 3698.71,-6426.68 11.04,3039.34 7.15,5628.31 0,8576.27z"
   id="path2966" />
 <g
   id="g5516"
   transform="matrix(26.458334,0,0,26.458334,-8112.8318,3636.7547)"><g
     clip-path="url(#a)"
     id="g5494"><g
       transform="matrix(2,0,0,2,18,18)"
       id="g5492"><path
         fill="#0055ff"
         fill-rule="evenodd"
         d="M 29.973,15.027 15.163,29.837 0.351,15.027 15.162,0.217 Z"
         id="path5490" /></g></g><g
     fill="#f0b90b"
     id="g5503"><path
       d="M 77.91,48 85.322,55.59 66.66,74.25 59.249,66.84 Z M 89.16,59.25 96.572,66.84 66.66,96.75 59.249,89.34 89.159,59.25 Z M 55.41,70.5 62.821,78.09 55.411,85.5 48,78.09 Z m 45,0 7.412,7.59 L 77.91,108 70.499,100.59 100.409,70.5 Z"
       id="path5501" /></g></g></g>
</svg>
