<svg xmlns="http://www.w3.org/2000/svg" width="32" height="32" fill="none"><path fill="#909BA7" d="M20.8 10.102c-5.725.472-10.31 4.963-10.929 10.645A9 9 0 1 1 20.8 10.102Z"/><path fill="#fff" d="M12.775 14.152a12.04 12.04 0 0 0-1.156 1.554H8.674l.665-2.497-.94.344.31-1.172.942-.344 1.127-4.236h2.445l-.862 3.246 1.196-.437.01.028-.302 1.136-1.215.445-.514 1.933h1.239Z"/><g clip-path="url(#a)"><path fill="url(#b)" d="M31 22a9 9 0 1 0-18 0 9 9 0 0 0 18 0Z"/><path fill="#fff" fill-rule="evenodd" d="M22 18.85A3.15 3.15 0 0 0 18.85 22H17.5a4.501 4.501 0 0 1 4.5-4.5v1.35Zm2.91-.145c.159-.382.24-.791.24-1.205h1.35A4.501 4.501 0 0 1 22 22v-1.35a3.15 3.15 0 0 0 2.91-1.944ZM22 22a4.501 4.501 0 0 0-4.5 4.5h1.35A3.15 3.15 0 0 1 22 23.35V22Zm2.91 1.206c.159-.383.24-.792.24-1.206h1.35a4.501 4.501 0 0 1-4.5 4.5v-1.35a3.149 3.149 0 0 0 2.91-1.944Z" clip-rule="evenodd"/></g><defs><linearGradient id="b" x1="15.675" x2="28.4" y1="15.475" y2="28.2" gradientUnits="userSpaceOnUse"><stop stop-color="#4EBEA0"/><stop offset=".965" stop-color="#1D5F94"/></linearGradient><clipPath id="a"><path fill="#fff" d="M13 13h18v18H13z"/></clipPath></defs></svg>