<svg xmlns="http://www.w3.org/2000/svg" width="32" height="32" fill="none"><path fill="#2775CA" d="M19.801 9.102c-5.726.472-10.312 4.964-10.93 10.647A8.977 8.977 0 0 1 2 11c0-4.988 4.012-9 9-9a8.977 8.977 0 0 1 8.801 7.102Z"/><path fill="#fff" d="M17.566 9.502c-.377.105-.745.228-1.106.368a5.581 5.581 0 0 0-3.549-4.007c-.112-.076-.225-.226-.225-.376v-.524c0-.076 0-.113.038-.15.037-.15.187-.226.337-.15a6.801 6.801 0 0 1 4.505 4.839Zm-4.216 2.151c-.38.302-.742.627-1.084.972a.985.985 0 0 0 .008-.125c0-.6-.337-.825-1.387-1.013-1.576-.187-2.325-.675-2.325-1.912 0-.938.712-1.688 1.837-1.838v-.862c.038-.188.15-.3.3-.3h.563c.187.037.3.15.3.3v.9a1.873 1.873 0 0 1 1.687 1.537v.038c0 .15-.113.262-.263.262h-.6a.282.282 0 0 1-.262-.187c-.188-.563-.563-.788-1.238-.788-.75 0-1.125.338-1.125.863 0 .525.225.825 1.35.975 1.215.145 1.962.445 2.24 1.178Zm-1.818 1.785a12.027 12.027 0 0 0-1.095 1.57v-.596c-1.238-.187-1.838-.862-1.988-1.8v-.037c0-.15.113-.263.262-.263h.638c.112 0 .225.075.262.225.113.563.45.975 1.425.975.18 0 .346-.026.496-.074Z"/><path fill="#fff" d="M5.749 9.162c-1.088 2.888.412 6.15 3.337 7.2.113.076.225.225.225.338v.525c0 .075 0 .112-.037.15-.038.15-.188.225-.338.15a6.746 6.746 0 0 1-4.387-4.387c-1.125-3.563.825-7.35 4.387-8.476.038-.037.113-.037.15-.037.15.037.225.15.225.3v.525c0 .188-.075.3-.225.375A5.547 5.547 0 0 0 5.75 9.162Z"/><g clip-path="url(#a)"><path fill="url(#b)" d="M30 21a9 9 0 1 0-18 0 9 9 0 0 0 18 0Z"/><path fill="#fff" fill-rule="evenodd" d="M21 17.85A3.15 3.15 0 0 0 17.85 21H16.5a4.501 4.501 0 0 1 4.5-4.5v1.35Zm2.91-.145c.159-.382.24-.791.24-1.205h1.35A4.501 4.501 0 0 1 21 21v-1.35a3.15 3.15 0 0 0 2.91-1.944ZM21 21a4.501 4.501 0 0 0-4.5 4.5h1.35A3.15 3.15 0 0 1 21 22.35V21Zm2.91 1.206c.159-.383.24-.792.24-1.206h1.35a4.501 4.501 0 0 1-4.5 4.5v-1.35a3.149 3.149 0 0 0 2.91-1.944Z" clip-rule="evenodd"/></g><defs><linearGradient id="b" x1="14.675" x2="27.4" y1="14.475" y2="27.2" gradientUnits="userSpaceOnUse"><stop stop-color="#4EBEA0"/><stop offset=".965" stop-color="#1D5F94"/></linearGradient><clipPath id="a"><path fill="#fff" d="M12 12h18v18H12z"/></clipPath></defs></svg>