<svg xmlns="http://www.w3.org/2000/svg" fill="none" viewBox="0 0 24 24"><path fill="#2775CA" fill-rule="evenodd" d="M14.851 6.826a9.003 9.003 0 0 0-8.198 7.986A6.733 6.733 0 0 1 1.5 8.25c0-3.74 3.01-6.75 6.75-6.75a6.733 6.733 0 0 1 6.601 5.326z" clip-rule="evenodd"/><path fill="#fff" fill-rule="evenodd" d="M13.173 7.126c-.282.079-.559.171-.829.276a4.186 4.186 0 0 0-2.662-3.005c-.084-.056-.168-.169-.168-.281v-.394c0-.056 0-.085.028-.113.028-.112.14-.168.253-.112a5.1 5.1 0 0 1 3.378 3.63zM10.011 8.74c-.285.226-.557.47-.812.728a.741.741 0 0 0 .005-.092c0-.45-.253-.619-1.04-.76-1.181-.14-1.744-.506-1.744-1.434 0-.703.534-1.265 1.378-1.378v-.647c.028-.14.113-.225.225-.225h.422c.14.028.225.113.225.225v.675a1.405 1.405 0 0 1 1.266 1.153v.028a.192.192 0 0 1-.197.197h-.45a.212.212 0 0 1-.197-.14c-.14-.422-.422-.591-.928-.591-.563 0-.844.253-.844.647s.169.619 1.012.731c.911.109 1.471.334 1.68.883zm-1.364 1.34a9.024 9.024 0 0 0-.82 1.175v-.445c-.929-.14-1.379-.647-1.491-1.35v-.028c0-.112.084-.197.196-.197h.479c.084 0 .168.057.196.169.085.422.338.731 1.07.731.133 0 .257-.019.37-.055zM4.31 6.872c-.815 2.166.31 4.612 2.504 5.4.084.056.168.169.168.253v.394c0 .056 0 .084-.028.112-.028.113-.14.169-.253.113a5.06 5.06 0 0 1-3.29-3.29A5.053 5.053 0 0 1 6.7 3.496c.028-.028.084-.028.113-.028.112.028.168.112.168.225v.393c0 .141-.056.225-.168.282A4.16 4.16 0 0 0 4.31 6.872z" clip-rule="evenodd"/><g fill-rule="evenodd" clip-path="url(#a)" clip-rule="evenodd"><path fill="#05B595" d="M22.5 15.75 15.75 9 9 15.75l6.75 6.75 6.75-6.75zm-6.508 4.327h-.58v-.84c-1.151-.103-2.103-.784-2.137-1.91h.842c.085.6.454 1.057 1.28 1.153.23.043.468.042.7-.003.82-.093 1.142-.52 1.142-1.054 0-.531-.261-.87-1.218-1.102l-.03-.004a5.534 5.534 0 0 0-.66-.162l-.03-.008c-1.204-.29-1.852-.826-1.852-1.778 0-1.04.817-1.726 1.963-1.827V11.7h.58v.836c1.116.102 1.986.807 2.02 1.876h-.84c-.064-.653-.527-1.034-1.18-1.117v.005a1.675 1.675 0 0 0-.58.011v-.01c-.735.096-1.122.54-1.122 1.01 0 .46.275.82 1.054 1.026.171.059.387.112.648.147v.01l.15.035c1.241.3 1.938.812 1.938 1.827 0 1.165-.948 1.798-2.088 1.885v.836z"/><path fill="#00FEB5" d="M9.002 15.765c1.396-.824 2.488-1.08 3.406-1.067.386.006.75.058 1.105.144a1.726 1.726 0 0 1-.062-.474c0-1.039.817-1.725 1.962-1.827V11.7h.58v.836c1.117.102 1.987.808 2.021 1.876h-.841c-.063-.653-.527-1.035-1.18-1.117l-.58.005c-.734.097-1.121.542-1.121 1.01 0 .474.29.842 1.121 1.045l.58.14.15.034c.796.192 1.368.47 1.676.914.334.077.682.132 1.048.155 1.054.065 2.212-.139 3.565-.778l.07-.07L15.752 9l-.455.455-6.295 6.295c.01-.006.005 0 0 .007s-.01.014 0 .008z"/></g><path fill="#4EAF94" d="M15.75 9a6.75 6.75 0 1 0 0 13.5 6.75 6.75 0 0 0 0-13.5Z"/><path fill="#fff" fill-rule="evenodd" d="M16.456 19.125v-2.628c1.603-.088 2.81-.472 2.81-.932 0-.46-1.207-.844-2.81-.932V13.9h2.002v-1.525h-5.474V13.9h2.002v.736c-1.574.095-2.752.475-2.752.929 0 .454 1.178.834 2.752.929v2.631h1.47zm0-3.433V14.8c1.38.063 2.41.308 2.41.6 0 .342-1.395.618-3.116.618-1.72 0-3.116-.276-3.116-.617 0-.289 1-.531 2.352-.599V15.688a13.26 13.26 0 0 0 1.47.004z" clip-rule="evenodd"/><defs><clipPath id="a"><path fill="#fff" d="M9 9h13.5v13.5H9z"/></clipPath></defs></svg>