<svg xmlns="http://www.w3.org/2000/svg" width="32" height="32" fill="none"><path fill="url(#a)" d="M19.8 9.102c-5.725.472-10.31 4.963-10.929 10.645A9 9 0 1 1 19.8 9.102Z"/><path fill="#fff" d="M9.702 16.488c-.063.152-.122.306-.179.46C7.32 16.683 6.5 15.4 6.5 13.25v-7.5c.464.257 1.393 1.213 1.393 2.978v4.522c0 .941.507 2.203 1.809 3.238ZM16.25 9.953V7.625h-1.277v2.943c.412-.23.838-.435 1.277-.615ZM11.128 13.956c-.265.36-.51.735-.734 1.124-.709-.658-1.108-1.598-1.108-2.602V5.86c.464.22 1.393 1.015 1.393 2.427v4.301c0 .54.173 1.005.449 1.368ZM13.464 11.563c-.408.316-.796.658-1.16 1.023V7.625h1.16v3.938Z"/><g clip-path="url(#b)"><path fill="url(#c)" d="M30 21a9 9 0 1 0-18 0 9 9 0 0 0 18 0Z"/><path fill="#fff" fill-rule="evenodd" d="M21 17.85A3.15 3.15 0 0 0 17.85 21H16.5a4.501 4.501 0 0 1 4.5-4.5v1.35Zm2.91-.145c.159-.382.24-.791.24-1.205h1.35A4.501 4.501 0 0 1 21 21v-1.35a3.15 3.15 0 0 0 2.91-1.944ZM21 21a4.501 4.501 0 0 0-4.5 4.5h1.35A3.15 3.15 0 0 1 21 22.35V21Zm2.91 1.206c.159-.383.24-.792.24-1.206h1.35a4.501 4.501 0 0 1-4.5 4.5v-1.35a3.149 3.149 0 0 0 2.91-1.944Z" clip-rule="evenodd"/></g><defs><linearGradient id="a" x1="17.125" x2="5" y1="4.75" y2="18.5" gradientUnits="userSpaceOnUse"><stop stop-color="#E40428"/><stop offset="1" stop-color="#782767"/></linearGradient><linearGradient id="c" x1="14.675" x2="27.4" y1="14.475" y2="27.2" gradientUnits="userSpaceOnUse"><stop stop-color="#4EBEA0"/><stop offset=".965" stop-color="#1D5F94"/></linearGradient><clipPath id="b"><path fill="#fff" d="M12 12h18v18H12z"/></clipPath></defs></svg>