<?xml version="1.0" encoding="UTF-8" standalone="no"?>
<!-- Created with Inkscape (http://www.inkscape.org/) -->

<svg
   width="14.726211mm"
   height="14.726211mm"
   viewBox="0 0 14.726212 14.72621"
   version="1.1"
   id="svg188"
   inkscape:export-filename="/home/ksmd/snsbttci.png"
   inkscape:export-xdpi="100.076"
   inkscape:export-ydpi="100.076"
   inkscape:version="1.1.2 (0a00cf5339, 2022-02-04)"
   sodipodi:docname="snsbttci1.svg"
   xmlns:inkscape="http://www.inkscape.org/namespaces/inkscape"
   xmlns:sodipodi="http://sodipodi.sourceforge.net/DTD/sodipodi-0.dtd"
   xmlns="http://www.w3.org/2000/svg"
   xmlns:svg="http://www.w3.org/2000/svg">
  <sodipodi:namedview
     id="namedview190"
     pagecolor="#ffffff"
     bordercolor="#666666"
     borderopacity="1.0"
     inkscape:pageshadow="2"
     inkscape:pageopacity="0.0"
     inkscape:pagecheckerboard="0"
     inkscape:document-units="mm"
     showgrid="false"
     inkscape:zoom="7.8211883"
     inkscape:cx="36.247689"
     inkscape:cy="23.461908"
     inkscape:window-width="1920"
     inkscape:window-height="1048"
     inkscape:window-x="0"
     inkscape:window-y="0"
     inkscape:window-maximized="1"
     inkscape:current-layer="g1383"
     fit-margin-top="-8.0491169e-16"
     lock-margins="true"
     fit-margin-left="-8.0491169e-16"
     fit-margin-right="-8.0491169e-16"
     fit-margin-bottom="-8.0491169e-16" />
  <defs
     id="defs185" />
  <g
     inkscape:label="Layer 1"
     inkscape:groupmode="layer"
     id="layer1"
     transform="translate(-9.3753335,-12.446675)">
    <g
       id="g1383"
       transform="matrix(0.05576383,0,0,0.05576383,20.451391,15.595762)">
      <circle
         style="fill:#f9f9f9;stroke-width:4.74471"
         id="path1733"
         cx="-66.583527"
         cy="75.569023"
         r="132.04088" />
      <g
         id="g4145"
         transform="matrix(1.128894,0,0,1.128894,9.599891,-9.2127155)">
        <path
           style="fill:#6952f1;stroke-width:0.192"
           d="m -108.50813,142.75986 -38.064,-21.99084 c 0,-29.436049 0,-58.872102 0,-88.308153 25.70777,14.863119 44.98742,26.047968 69.833006,40.322444 l 6.569009,3.77288 c -0.117066,29.400309 0.212216,58.815019 -0.130008,88.209259 0,0 -17.2728,-9.91062 -38.207997,-22.00559 z M -138.26207,31.090447 c -2.97959,-1.710643 -5.39868,-3.17309 -5.37575,-3.24988 23.70201,-13.836427 51.180115,-29.7658857 73.297944,-42.336433 0.227814,-0.08742 0.183057,0.879707 0.179284,6.2155073 l -0.0045,6.308543 C -92.074504,10.653093 -114.01454,23.307707 -132.84463,34.200709 Z"
           id="path1389"
           sodipodi:nodetypes="ccccccscsccsccs" />
        <path
           style="fill:#5327da;stroke-width:0.192"
           d="m -64.636135,101.08419 c 0.02733,11.6952 0.02733,30.8328 0,42.528 -0.319025,12.2385 -0.06677,-69.349771 0,-42.528 z m 0.419677,-27.342339 c -0.373868,-0.25418 -0.378286,-0.53307 -0.327329,-20.657202 l 0.05165,-20.399538 c 25.310424,14.666382 50.708414,29.185108 75.973704,43.92798 0.0858,0.0858 0.13406,9.3246 0.10718,20.5306 l -0.0489,20.374549 c -25.24436,-14.60529 -50.53815,-29.126219 -75.756305,-43.776389 z m -0.275674,-47.370852 -0.04887,-20.4666287 -0.04887,-20.4666283 0.432869,0.226521 c 24.549307,14.21303343 52.958402,30.414003 75.55375,43.64525 0.19085,0.17601 0.23073,4.451852 0.192,20.590177 l -0.0489,20.368031 C -13.804143,55.635475 -39.148133,41.003237 -64.492132,26.370999 Z m -41.130318,23.517868 -5.41833,-3.134504 c 13.589345,-7.830844 27.151124,-15.714928 40.777821,-23.478178 0.06164,0 0.08929,2.815091 0.06145,6.255756 l -0.05062,6.255756 c -9.917859,5.724432 -19.819764,11.47865 -29.760001,17.163209 -0.1056,0.03986 -2.63024,-1.338061 -5.61032,-3.062039 z m -16.18168,-9.350291 c -2.904,-1.678201 -5.28,-3.135452 -5.28,-3.238338 20.48802,-12.10432 40.344589,-23.476981 56.927998,-33.0685417 l -0.0014,6.3062447 -0.0014,6.306244 c -15.100051,8.710953 -30.187338,17.444141 -45.295588,26.140834 l -1.06961,0.604831 z"
           id="path1387"
           sodipodi:nodetypes="ccccsccscccccccsccsccsccscscccccc" />
        <path
           style="fill:#371990;stroke-width:0.192"
           d="m -64.588132,122.34352 c 0,-23.352629 0.07068,-42.430529 0.157066,-42.395329 0.08639,0.0352 16.623583,9.568 36.749333,21.183999 27.12800001,15.6575 36.53501,21.17515 36.37093,21.33323 -0.15022,0.14473 -69.263275,40.0782 -73.133329,42.25639 -0.0792,0.0446 -0.144,-19.02565 -0.144,-42.37829 z M -78.083829,65.728829 c 2.891729,-1.703497 4.876341,-3.044885 7.927697,-4.800948 0.01986,3.12779 -0.01096,6.265577 -0.048,9.3876 -2.789717,-1.55091 -4.967467,-2.85149 -7.879697,-4.586652 z m -11.203841,-6.396741 -5.403537,-3.118572 0.507537,-0.307238 c 0.847507,-0.513038 23.13191,-13.35866 23.595538,-13.601412 l 0.432,-0.226191 -0.0028,6.294757 -0.0028,6.294755 c -4.486361,2.607603 -8.993771,5.1883 -13.513985,7.731237 -0.11458,0.02818 -2.639918,-1.352121 -5.611865,-3.067336 z"
           id="path1385"
           sodipodi:nodetypes="ssssssccccccsscccccc" />
      </g>
    </g>
  </g>
</svg>
