<?xml version="1.0" encoding="UTF-8" standalone="no"?>
<svg
   width="200"
   height="200"
   viewBox="0 0 200 200"
   fill="none"
   version="1.1"
   id="svg521"
   sodipodi:docname="usdn.svg"
   inkscape:version="1.2 (dc2aedaf03, 2022-05-15)"
   xmlns:inkscape="http://www.inkscape.org/namespaces/inkscape"
   xmlns:sodipodi="http://sodipodi.sourceforge.net/DTD/sodipodi-0.dtd"
   xmlns="http://www.w3.org/2000/svg"
   xmlns:svg="http://www.w3.org/2000/svg">
  <sodipodi:namedview
     id="namedview523"
     pagecolor="#ffffff"
     bordercolor="#666666"
     borderopacity="1.0"
     inkscape:showpageshadow="2"
     inkscape:pageopacity="0.0"
     inkscape:pagecheckerboard="0"
     inkscape:deskcolor="#d1d1d1"
     showgrid="false"
     inkscape:zoom="2.2842864"
     inkscape:cx="61.507175"
     inkscape:cy="82.520302"
     inkscape:window-width="1920"
     inkscape:window-height="1043"
     inkscape:window-x="0"
     inkscape:window-y="37"
     inkscape:window-maximized="1"
     inkscape:current-layer="svg521" />
  <g
     clip-path="url(#clip0_23936_323442)"
     id="g411"
     transform="matrix(11.111111,0,0,11.111111,-133.33333,-133.33333)">
    <path
       fill-rule="evenodd"
       clip-rule="evenodd"
       d="m 30,21 -9,-9 -9,9 9,9 z m -8.6778,5.7696 H 20.5488 V 25.6482 C 19.0146,25.5126 17.745,24.6042 17.7,23.1024 h 1.122 c 0.1146,0.8004 0.606,1.41 1.7064,1.5378 0.3087,0.0578 0.6255,0.0564 0.9336,-0.0042 1.095,-0.1236 1.5234,-0.693 1.5234,-1.4046 0,-0.7092 -0.348,-1.1604 -1.6242,-1.47 l -0.039,-0.006 c -0.231,-0.0774 -0.522,-0.144 -0.8808,-0.2148 l -0.0408,-0.0108 c -1.605,-0.387 -2.4684,-1.1022 -2.4684,-2.3718 0,-1.386 1.089,-2.301 2.6166,-2.436 V 15.6 h 0.774 v 1.1148 c 1.488,0.1356 2.6484,1.0764 2.694,2.5008 h -1.122 c -0.084,-0.87 -0.702,-1.3788 -1.572,-1.4886 v 0.006 c -0.2569,-0.0401 -0.5188,-0.035 -0.774,0.015 v -0.0144 c -0.9798,0.129 -1.4952,0.7218 -1.4952,1.347 0,0.6138 0.366,1.0938 1.4046,1.3692 0.2292,0.078 0.516,0.1488 0.864,0.195 v 0.015 l 0.1998,0.045 c 1.656,0.3996 2.5848,1.083 2.5848,2.436 0,1.554 -1.2636,2.3976 -2.784,2.514 v 1.1148 z"
       fill="#05b595"
       id="path407" />
    <path
       fill-rule="evenodd"
       clip-rule="evenodd"
       d="m 11.9999,21.02 c 1.8622,-1.0985 3.3175,-1.4405 4.542,-1.4228 0.5133,0.0074 0.9987,0.0775 1.472,0.1918 -0.0548,-0.1934 -0.0826,-0.4034 -0.0826,-0.6312 0,-1.3857 1.0892,-2.301 2.6167,-2.4363 V 15.6 h 0.7735 v 1.115 c 1.4889,0.1354 2.649,1.0764 2.6941,2.5008 H 22.8941 C 22.8104,18.3457 22.1916,17.8365 21.3215,17.727 l -0.7735,0.0064 c -0.9796,0.1289 -1.4953,0.7219 -1.4953,1.3471 0,0.6316 0.3868,1.1215 1.4953,1.3922 l 0.7735,0.1869 0.1998,0.0451 c 1.0613,0.256 1.8236,0.6285 2.2344,1.219 0.4452,0.1031 0.9098,0.1766 1.3974,0.2067 1.4052,0.0869 2.9503,-0.1849 4.754,-1.0371 L 29.9998,21 20.9999,12 20.3836,12.6163 c -2.4773,2.4772 -6.3567,6.3565 -8.3837,8.3837 0.0134,-0.008 0.0068,9e-4 10e-5,0.0099 -0.0067,0.009 -0.0135,0.018 -10e-5,0.0101 z"
       fill="#00feb5"
       id="path409" />
  </g>
  <defs
     id="defs519">
    <linearGradient
       id="paint0_linear_23936_323442"
       x1="5.8997202"
       y1="18.7262"
       x2="19.9991"
       y2="18.7262"
       gradientUnits="userSpaceOnUse">
      <stop
         stop-color="#600000"
         id="stop413" />
      <stop
         offset="0.327"
         stop-color="#630000"
         id="stop415" />
      <stop
         offset="0.59"
         stop-color="#6D0000"
         id="stop417" />
      <stop
         offset="0.83"
         stop-color="#7E0000"
         id="stop419" />
      <stop
         offset="1"
         stop-color="#8F0000"
         id="stop421" />
    </linearGradient>
    <linearGradient
       id="paint1_linear_23936_323442"
       x1="5.9003901"
       y1="14.4457"
       x2="19.9998"
       y2="14.4457"
       gradientUnits="userSpaceOnUse">
      <stop
         stop-color="#BF1010"
         id="stop424" />
      <stop
         offset="0.021"
         stop-color="#C11212"
         id="stop426" />
      <stop
         offset="0.244"
         stop-color="#D22323"
         id="stop428" />
      <stop
         offset="0.487"
         stop-color="#DC2D2D"
         id="stop430" />
      <stop
         offset="0.791"
         stop-color="#DF3030"
         id="stop432" />
      <stop
         offset="0.841"
         stop-color="#DC2E2E"
         id="stop434" />
      <stop
         offset="0.882"
         stop-color="#D22626"
         id="stop436" />
      <stop
         offset="0.919"
         stop-color="#C11919"
         id="stop438" />
      <stop
         offset="0.954"
         stop-color="#A90808"
         id="stop440" />
      <stop
         offset="0.966"
         stop-color="#9F0000"
         id="stop442" />
      <stop
         offset="1"
         stop-color="#DF3030"
         id="stop444" />
    </linearGradient>
    <linearGradient
       id="paint2_linear_23936_323442"
       x1="250.353"
       y1="178.036"
       x2="1133.98"
       y2="178.036"
       gradientUnits="userSpaceOnUse">
      <stop
         stop-color="#DFDFDF"
         id="stop447" />
      <stop
         offset="0.021"
         stop-color="#E1E1E1"
         id="stop449" />
      <stop
         offset="0.244"
         stop-color="#F2F2F2"
         id="stop451" />
      <stop
         offset="0.487"
         stop-color="#FCFCFC"
         id="stop453" />
      <stop
         offset="0.791"
         stop-color="white"
         id="stop455" />
      <stop
         offset="0.841"
         stop-color="#FCFCFC"
         id="stop457" />
      <stop
         offset="0.882"
         stop-color="#F2F2F2"
         id="stop459" />
      <stop
         offset="0.919"
         stop-color="#E1E1E1"
         id="stop461" />
      <stop
         offset="0.954"
         stop-color="#C9C9C9"
         id="stop463" />
      <stop
         offset="0.966"
         stop-color="#BFBFBF"
         id="stop465" />
      <stop
         offset="1"
         stop-color="white"
         id="stop467" />
    </linearGradient>
    <linearGradient
       id="paint3_linear_23936_323442"
       x1="5.89994"
       y1="12.772"
       x2="19.9993"
       y2="12.772"
       gradientUnits="userSpaceOnUse">
      <stop
         stop-color="#00209F"
         id="stop470" />
      <stop
         offset="0.021"
         stop-color="#0222A1"
         id="stop472" />
      <stop
         offset="0.244"
         stop-color="#1333B2"
         id="stop474" />
      <stop
         offset="0.487"
         stop-color="#1D3DBC"
         id="stop476" />
      <stop
         offset="0.791"
         stop-color="#2040BF"
         id="stop478" />
      <stop
         offset="0.841"
         stop-color="#1E3DBC"
         id="stop480" />
      <stop
         offset="0.882"
         stop-color="#1933B2"
         id="stop482" />
      <stop
         offset="0.919"
         stop-color="#1122A1"
         id="stop484" />
      <stop
         offset="0.954"
         stop-color="#050A89"
         id="stop486" />
      <stop
         offset="0.966"
         stop-color="#00007F"
         id="stop488" />
      <stop
         offset="1"
         stop-color="#2040BF"
         id="stop490" />
    </linearGradient>
    <linearGradient
       id="paint4_linear_23936_323442"
       x1="19.717899"
       y1="36.737598"
       x2="53.891701"
       y2="36.737598"
       gradientUnits="userSpaceOnUse">
      <stop
         stop-color="#DFDFDF"
         id="stop493" />
      <stop
         offset="0.021"
         stop-color="#E1E1E1"
         id="stop495" />
      <stop
         offset="0.244"
         stop-color="#F2F2F2"
         id="stop497" />
      <stop
         offset="0.487"
         stop-color="#FCFCFC"
         id="stop499" />
      <stop
         offset="0.791"
         stop-color="white"
         id="stop501" />
      <stop
         offset="0.841"
         stop-color="#FCFCFC"
         id="stop503" />
      <stop
         offset="0.882"
         stop-color="#F2F2F2"
         id="stop505" />
      <stop
         offset="0.919"
         stop-color="#E1E1E1"
         id="stop507" />
      <stop
         offset="0.954"
         stop-color="#C9C9C9"
         id="stop509" />
      <stop
         offset="0.966"
         stop-color="#BFBFBF"
         id="stop511" />
      <stop
         offset="1"
         stop-color="white"
         id="stop513" />
    </linearGradient>
    <clipPath
       id="clip0_23936_323442">
      <rect
         width="18"
         height="18"
         fill="#ffffff"
         transform="translate(12,12)"
         id="rect516"
         x="0"
         y="0" />
    </clipPath>
  </defs>
</svg>
