<svg xmlns="http://www.w3.org/2000/svg" width="120" height="120"><g fill-rule="evenodd" clip-path="url(#a)" clip-rule="evenodd"><path fill="#5A81EA" d="m48 48 20 20H28l20-20Z"/><path fill="#E14B51" d="m48 48 20-20H28l20 20Z"/></g><defs transform="scale(.5)"><clipPath id="a"><path d="M0 0v120h120V0H0zm83.6 81.4C71.3 93.7 53.8 96 44.4 86.7c-9.4-9.4-7-26.9 5.3-39.2s29.9-14.7 39.2-5.3c9.4 9.3 7 26.9-5.3 39.2z"/></clipPath></defs><g transform="matrix(2 0 0 2 48 48)"><path fill="#05F" fill-rule="evenodd" d="m29.973 15.027-14.81 14.81L.351 15.027 15.162.217z"/></g></svg>